<svg role="img" aria-labelledby="site-LOCATION__logo" version="1.1" xmlns="http://www.w3.org/2000/svg" viewBox="0 0 503.6 285.6">
  <title id="site-LOCATION__logo">All Kinds of Everything's Logo</title>
  <path d="M6.1,132.7C33.7,101.8,123.3,8.4,175.7,8.7h0.4c43.1-0.3,64.4,27.7,65.6,58.3c1.7,34.6-35.7,68.1-83.9,71.3v3.4
    c48.2,3.2,85.6,42.3,83.9,76.8c-1.2,30.5-22.5,58.6-65.6,58.3h-0.4c-52.4,0.3-142-93.1-169.6-123.9C1.3,147,1.3,138.6,6.1,132.7z"/>
  <path d="M497.5,132.7C469.9,101.8,380.2,8.4,327.9,8.7h-0.4C284.4,8.4,263,36.5,261.9,67c-1.7,34.6,35.7,68.1,83.9,71.3v3.4
    c-48.1,3.2-85.6,42.3-83.9,76.8c1.2,30.5,22.5,58.6,65.6,58.3h0.4c52.4,0.3,142-93.1,169.6-123.9C502.3,147,502.3,138.5,497.5,132.7
    L497.5,132.7z"/>
</svg>
